<svg width="50" height="47" viewBox="0 0 50 47" fill="none" xmlns="http://www.w3.org/2000/svg">
<path d="M7.05128 22.3568C10.9456 22.3568 14.1026 19.2288 14.1026 15.3703C14.1026 11.5117 10.9456 8.38378 7.05128 8.38378C3.15697 8.38378 0 11.5117 0 15.3703C0 19.2288 3.15697 22.3568 7.05128 22.3568Z" fill="#FEF9FF"/>
<path d="M26.1538 15.3703C26.1538 19.2288 22.9969 22.3568 19.1026 22.3568C15.2082 22.3568 12.0513 19.2288 12.0513 15.3703C12.0513 11.5117 15.2082 8.38378 19.1026 8.38378C22.9969 8.38378 26.1538 11.5117 26.1538 15.3703Z" fill="#FEF9FF"/>
<path d="M38.2051 15.3703C38.2051 19.2288 35.0482 22.3568 31.1538 22.3568C27.2595 22.3568 24.1026 19.2288 24.1026 15.3703C24.1026 11.5117 27.2595 8.38378 31.1538 8.38378C35.0482 8.38378 38.2051 11.5117 38.2051 15.3703Z" fill="#FEF9FF"/>
<path d="M50 15.3703C50 19.2288 46.843 22.3568 42.9487 22.3568C39.0544 22.3568 35.8974 19.2288 35.8974 15.3703C35.8974 11.5117 39.0544 8.38378 42.9487 8.38378C46.843 8.38378 50 11.5117 50 15.3703Z" fill="#FEF9FF"/>
<path d="M2.05128 24.214C3.52605 24.6778 5.17829 24.9377 6.92308 24.9377C7.897 24.9377 8.8421 24.8567 9.74359 24.7045V32.3522C9.74365 33.7552 10.8916 34.8927 12.3077 34.8927H37.9487C39.3648 34.8927 40.5128 33.7552 40.5128 32.3522V24.7045C41.4143 24.8567 42.3594 24.9377 43.3333 24.9377C45.0781 24.9377 46.7304 24.6778 48.2051 24.214V41.9189C48.2051 44.7251 45.9092 47 43.0769 47H7.17949C4.34726 47 2.05128 44.7251 2.05128 41.9189V24.214Z" fill="#FEF9FF"/>
<path d="M2.48286 4.04477C2.97828 1.68858 5.07416 0 7.50327 0H42.667C45.1348 0 47.2526 1.74148 47.7074 4.1447L49.2308 12.1946H0.769231L2.48286 4.04477Z" fill="#FEF9FF"/>
</svg>
