<svg width="50" height="50" viewBox="0 0 50 50" fill="none" xmlns="http://www.w3.org/2000/svg">
<path d="M39.7617 0C45.4162 0 50 4.57891 50 10.2273V39.7727C50 45.4211 45.4162 50 39.7617 50C37.8769 50 36.3489 48.4737 36.3489 46.5909V42.4242H37.8657C40.3788 42.4242 42.4161 40.3892 42.4161 37.8788V12.1212C42.4161 9.61083 40.3788 7.57576 37.8657 7.57576H36.3489V3.40909C36.3489 1.5263 37.8769 4.63684e-08 39.7617 0Z" fill="#FEF9FF"/>
<path d="M28.765 3.78788C28.765 1.69589 30.4627 0 32.557 0H40.1409C42.2351 0 43.9329 1.69589 43.9329 3.78788C43.9329 5.87987 42.2351 7.57576 40.1409 7.57576H32.557C30.4627 7.57576 28.765 5.87987 28.765 3.78788Z" fill="#FEF9FF"/>
<path d="M28.765 46.2121C28.765 44.1201 30.4627 42.4242 32.557 42.4242H40.1409C42.2351 42.4242 43.9329 44.1201 43.9329 46.2121C43.9329 48.3041 42.2351 50 40.1409 50H32.557C30.4627 50 28.765 48.3041 28.765 46.2121Z" fill="#FEF9FF"/>
<path d="M2.37296 25.0412C2.37296 22.9492 4.07068 21.2533 6.16492 21.2533H31.9503C34.0445 21.2533 35.7422 22.9492 35.7422 25.0412C35.7422 27.1332 34.0445 28.8291 31.9503 28.8291H6.16492C4.07068 28.8291 2.37296 27.1332 2.37296 25.0412Z" fill="#FEF9FF"/>
<path d="M20.4162 41.7166C18.9353 43.1958 16.5344 43.1958 15.0535 41.7166L1.11064 27.7887C-0.370213 26.3095 -0.370213 23.9111 1.11064 22.4319C2.59149 20.9526 4.99243 20.9526 6.47328 22.4319L20.4162 36.3597C21.897 37.839 21.897 40.2373 20.4162 41.7166Z" fill="#FEF9FF"/>
<path d="M1.11064 27.7887C-0.370213 26.3095 -0.370213 23.9111 1.11064 22.4319L15.0535 8.50399C16.5344 7.02473 18.9353 7.02473 20.4162 8.50399C21.897 9.98325 21.897 12.3816 20.4162 13.8609L6.47328 27.7887C4.99243 29.268 2.59149 29.268 1.11064 27.7887Z" fill="#FEF9FF"/>
</svg>
