<svg width="50" height="50" viewBox="0 0 50 50" fill="none" xmlns="http://www.w3.org/2000/svg">
<path d="M1.94576 48.0874C-0.602639 45.5372 -0.602639 41.4026 1.94576 38.8524L38.8601 1.91262C41.4085 -0.63754 45.5403 -0.637541 48.0887 1.91262C50.6371 4.46278 50.6371 8.59741 48.0887 11.1476L11.1744 48.0874C8.62595 50.6375 4.49417 50.6375 1.94576 48.0874Z" fill="#FEF9FF"/>
<path d="M48.0542 48.0874C50.6026 45.5372 50.6026 41.4026 48.0542 38.8524L11.1399 1.91262C8.59149 -0.63754 4.45971 -0.637541 1.9113 1.91262C-0.637101 4.46278 -0.637101 8.59741 1.9113 11.1476L38.8256 48.0874C41.3741 50.6375 45.5058 50.6375 48.0542 48.0874Z" fill="#FEF9FF"/>
</svg>
