<svg width="50" height="50" viewBox="0 0 50 50" fill="none" xmlns="http://www.w3.org/2000/svg">
<path d="M21.681 3.28947C21.681 1.47275 23.1423 0 24.9449 0C26.7475 0 28.2087 1.47275 28.2087 3.28947V33.5526C28.2087 35.3694 26.7475 36.8421 24.9449 36.8421C23.1423 36.8421 21.681 35.3694 21.681 33.5526V3.28947Z" fill="#FEF9FF"/>
<path d="M12.5 25.6622C11.2254 24.3776 11.2254 22.2948 12.5 21.0102C13.7746 19.7256 15.8412 19.7256 17.1158 21.0102L27.2707 31.2447C28.5453 32.5293 28.5453 34.6121 27.2707 35.8967C25.996 37.1813 23.9295 37.1813 22.6548 35.8967L12.5 25.6622Z" fill="#FEF9FF"/>
<path d="M37.454 25.6622C38.7286 24.3776 38.7286 22.2948 37.454 21.0102C36.1794 19.7256 34.1128 19.7256 32.8382 21.0102L22.6833 31.2447C21.4087 32.5293 21.4087 34.6121 22.6833 35.8967C23.958 37.1813 26.0245 37.1813 27.2992 35.8967L37.454 25.6622Z" fill="#FEF9FF"/>
<path fill-rule="evenodd" clip-rule="evenodd" d="M19.5365 39.1545C22.5956 42.2375 27.5553 42.2375 30.6143 39.1545C33.6734 36.0715 36.8254 32.8947 36.8254 32.8947H46.0833C48.2464 32.8947 50 34.662 50 36.8421V46.0526C50 48.2327 48.2464 50 46.0833 50H3.91667C1.75355 50 1.05146e-08 48.2327 0 46.0526V36.8421C0 34.662 1.75355 32.8947 3.91667 32.8947H13.3254L19.5365 39.1545ZM41.5 38C39.567 38 38 39.567 38 41.5C38 43.433 39.567 45 41.5 45C43.433 45 45 43.433 45 41.5C45 39.567 43.433 38 41.5 38Z" fill="#FEF9FF"/>
</svg>
