<svg width="50" height="50" viewBox="0 0 50 50" fill="none" xmlns="http://www.w3.org/2000/svg">
<path fill-rule="evenodd" clip-rule="evenodd" d="M20.0792 0C31.1687 0 40.1585 8.98978 40.1585 20.0792C40.1585 31.1687 31.1687 40.1585 20.0792 40.1585C8.98978 40.1585 0 31.1687 0 20.0792C4.04262e-07 8.98978 8.98978 4.04311e-07 20.0792 0ZM20.0792 6.27476C12.4552 6.27476 6.27476 12.4552 6.27476 20.0792C6.27476 27.7033 12.4552 33.8837 20.0792 33.8837C27.7033 33.8837 33.8837 27.7033 33.8837 20.0792C33.8837 12.4552 27.7033 6.27476 20.0792 6.27476Z" fill="#FEF9FF"/>
<path d="M31.3334 35.7703C30.1081 34.5451 30.1081 32.5586 31.3334 31.3334C32.5586 30.1081 34.5451 30.1081 35.7703 31.3334L49.0811 44.6442C50.3063 45.8694 50.3063 47.8559 49.0811 49.0811C47.8559 50.3063 45.8694 50.3063 44.6442 49.0811L31.3334 35.7703Z" fill="#FEF9FF"/>
</svg>
