<svg width="324" height="80" viewBox="0 0 324 80" fill="none" xmlns="http://www.w3.org/2000/svg">
<path d="M33.0053 79.9931C27.0784 79.9931 21.2627 78.9931 15.558 76.9933C9.85342 74.9194 4.66741 71.7715 0 67.5497L10.1127 55.4396C13.6688 58.3283 17.2991 60.6244 21.0034 62.3279C24.7817 64.0315 28.8935 64.8833 33.3387 64.8833C36.8948 64.8833 39.636 64.2537 41.5622 62.9945C43.5625 61.6613 44.5627 59.8467 44.5627 57.5506V57.3284C44.5627 56.2173 44.3404 55.2545 43.8959 54.4397C43.5255 53.5509 42.7476 52.7362 41.5622 51.9955C40.4509 51.2548 38.8581 50.5141 36.7836 49.7735C34.7833 49.0328 32.1533 48.2551 28.8935 47.4403C24.9669 46.4775 21.4108 45.4035 18.2251 44.2184C15.0394 43.0333 12.3353 41.589 10.1127 39.8854C7.89015 38.1078 6.14913 35.9228 4.88967 33.3304C3.70429 30.7381 3.11161 27.5161 3.11161 23.6646V23.4424C3.11161 19.8872 3.77838 16.7023 5.11193 13.8877C6.44547 10.9991 8.29762 8.51779 10.6684 6.4439C13.1132 4.37001 16.0026 2.77755 19.3364 1.66653C22.6703 0.55552 26.3375 1.18316e-05 30.3382 1.18316e-05C36.0428 1.18316e-05 41.2658 0.851791 46.0073 2.55535C50.8229 4.2589 55.231 6.70313 59.2317 9.88804L50.3414 22.7758C46.8593 20.4056 43.4514 18.554 40.1175 17.2207C36.7836 15.8135 33.4498 15.1098 30.1159 15.1098C26.7821 15.1098 24.2631 15.7764 22.5592 17.1096C20.9293 18.3688 20.1143 19.9612 20.1143 21.887V22.1092C20.1143 23.3683 20.3366 24.4794 20.7811 25.4422C21.2997 26.3311 22.1887 27.1458 23.4482 27.8865C24.7076 28.6272 26.4116 29.3308 28.5601 29.9974C30.7827 30.664 33.5609 31.4417 36.8948 32.3305C40.8213 33.3675 44.3034 34.5526 47.3409 35.8858C50.4525 37.1449 53.0455 38.7004 55.1199 40.552C57.2684 42.3297 58.8612 44.4406 59.8984 46.8848C61.0097 49.3291 61.5654 52.2547 61.5654 55.6618V55.884C61.5654 59.7356 60.8616 63.1797 59.4539 66.2165C58.0463 69.1792 56.083 71.6975 53.5641 73.7714C51.0452 75.7712 48.0447 77.3266 44.5627 78.4376C41.0806 79.4746 37.2282 79.9931 33.0053 79.9931Z" fill="#FEF9FF"/>
<path d="M107.981 79.9931C102.276 79.9931 96.8661 79.4005 91.9764 77.3266C87.0867 75.2527 82.8638 72.4381 79.3077 68.8829C75.7516 65.2536 72.9734 60.9947 70.9731 56.1062C68.9727 51.2178 67.9726 45.996 67.9726 40.4409V40.2187C67.9726 34.6637 68.9727 29.4789 70.9731 24.6645C72.9734 19.7761 75.7516 15.5172 79.3077 11.8879C82.8638 8.18448 87.1238 5.29585 92.0875 3.22195C97.0513 1.07399 102.534 1.13018e-05 108.535 1.13018e-05C112.165 1.13018e-05 115.462 0.29628 118.425 0.888818C121.463 1.48136 124.204 2.29611 126.649 3.33305C129.093 4.37 131.353 5.62915 133.427 7.11051C135.502 8.59186 137.428 10.2213 139.206 11.999L128.316 24.5534C125.278 21.8129 122.166 19.665 118.981 18.1095C115.869 16.5541 112.35 15.7764 108.423 15.7764C105.164 15.7764 102.126 16.406 99.3109 17.6651C96.5697 18.9243 94.199 20.6649 92.1987 22.8869C90.1983 25.1089 88.6425 27.7013 87.5313 30.664C86.42 33.5526 85.8643 36.6635 85.8643 39.9965V40.2187C85.8643 43.5518 86.42 46.6996 87.5313 49.6624C88.6425 52.6251 90.1613 55.2174 92.0875 57.4395C94.0879 59.6615 96.4586 61.4391 99.1998 62.7723C102.015 64.0315 105.09 64.6611 108.423 64.6611C112.869 64.6611 116.61 63.8463 119.647 62.2168C122.759 60.5873 125.834 58.3653 128.871 55.5507L139.762 66.5498C137.762 68.6977 135.687 70.6235 133.539 72.327C131.39 74.0306 129.019 75.512 126.426 76.7711C123.907 77.9562 121.129 78.845 118.092 79.4375C115.054 80.1042 111.759 79.9931 107.981 79.9931Z" fill="#FEF9FF"/>
<path d="M186.468 64.6611C189.876 64.6611 193.025 64.0315 195.914 62.7723C198.803 61.5132 201.248 59.7726 203.248 57.5506C205.323 55.3285 206.916 52.7732 208.027 49.8846C209.212 46.9219 209.805 43.774 209.805 40.4409V40.2187C209.805 36.8857 209.212 33.7378 208.027 30.7751C206.916 27.8124 205.286 25.22 203.137 22.998C201.063 20.776 198.581 19.0354 195.692 17.7762C192.802 16.443 189.654 15.7764 186.246 15.7764C182.764 15.7764 179.578 16.406 176.689 17.6651C173.873 18.9243 171.429 20.6649 169.354 22.8869C167.354 25.1089 165.761 27.7013 164.576 30.664C163.464 33.5526 162.909 36.6635 162.909 39.9965V40.2187C162.909 43.5518 163.464 46.6996 164.576 49.6624C165.761 52.6251 167.391 55.2174 169.465 57.4395C171.614 59.6615 174.096 61.4391 176.911 62.7723C179.8 64.0315 182.986 64.6611 186.468 64.6611ZM186.328 79.9931C180.327 79.9931 174.725 79.4005 169.688 77.3266C164.65 75.1787 160.279 72.327 156.574 68.7718C152.944 65.1425 150.092 60.9206 148.017 56.1062C146.017 51.2178 145.017 45.996 145.017 40.4409V40.2187C145.017 34.6637 146.054 29.4789 148.129 24.6645C150.203 19.7761 153.055 15.5172 156.685 11.8879C160.39 8.18448 164.761 5.29585 169.799 3.22195C174.911 1.07399 180.467 1.13018e-05 186.468 1.13018e-05C192.469 1.13018e-05 197.988 1.07399 203.026 3.22195C208.064 5.29585 212.398 8.14745 216.028 11.7768C219.733 15.332 222.585 19.5539 224.585 24.4423C226.66 29.2567 227.697 34.4415 227.697 39.9965V40.2187C227.697 45.7738 226.66 50.9956 224.585 55.884C222.511 60.6984 219.621 64.9573 215.917 68.6607C212.287 72.29 207.916 75.1787 202.804 77.3266C197.766 79.4005 192.329 79.9931 186.328 79.9931Z" fill="#FEF9FF"/>
<path d="M268.55 39.2188C272.847 39.2188 276.18 38.1078 278.551 35.8858C280.922 33.5897 282.107 30.7751 282.107 27.4421V27.2199C282.107 23.3683 280.848 20.4427 278.329 18.4428C275.884 16.443 272.513 15.4431 268.216 15.4431H254.992V39.2188H268.55ZM237.878 0H269.661C274.328 0 278.477 0.666609 282.107 1.99983C285.812 3.25898 288.923 5.07364 291.442 7.4438C294.035 9.81397 295.998 12.6656 297.332 15.9986C298.74 19.2576 299.443 22.8869 299.443 26.8866V27.1088C299.443 31.6269 298.628 35.5895 296.999 38.9966C295.369 42.4037 293.109 45.2553 290.22 47.5514C287.404 49.8475 284.071 51.5881 280.218 52.7732C276.44 53.8842 272.365 54.4397 267.994 54.4397H254.992V79.9931H237.878V0Z" fill="#FEF9FF"/>
<path d="M307.108 19.9983H324V79.9931H307.108V19.9983ZM307.108 1.67761e-05H324V15.9986H307.108V1.67761e-05Z" fill="#FEF9FF"/>
</svg>
