<svg width="50" height="50" viewBox="0 0 50 50" fill="none" xmlns="http://www.w3.org/2000/svg">
<path d="M23.1404 0.734751C24.1765 -0.244919 25.8235 -0.244916 26.8596 0.734754L49.1833 21.843C50.9055 23.4715 49.7229 26.3158 47.3237 26.3158H2.67629C0.277059 26.3158 -0.905501 23.4715 0.816693 21.843L23.1404 0.734751Z" fill="#FEF9FF"/>
<path fill-rule="evenodd" clip-rule="evenodd" d="M46.0526 44.7368C46.0526 47.6436 43.6962 50 40.7895 50H9.21053C6.30376 50 3.94737 47.6436 3.94737 44.7368V23.6842H46.0526V44.7368ZM23.1579 30.2632C20.9778 30.2632 19.2105 32.0305 19.2105 34.2105V44.7368H31.0526V34.2105C31.0526 32.0305 29.2853 30.2632 27.1053 30.2632H23.1579Z" fill="#FEF9FF"/>
</svg>
