<svg width="50" height="45" viewBox="0 0 50 45" fill="none" xmlns="http://www.w3.org/2000/svg">
<path d="M0 41.0294C0 38.8365 1.7673 37.0588 3.94737 37.0588H46.0526C48.2327 37.0588 50 38.8365 50 41.0294C50 43.2223 48.2327 45 46.0526 45H3.94737C1.7673 45 0 43.2223 0 41.0294Z" fill="#FEF9FF"/>
<path d="M0 3.97059C0 1.77769 1.7673 0 3.94737 0H46.0526C48.2327 0 50 1.77769 50 3.97059C50 6.16348 48.2327 7.94118 46.0526 7.94118H3.94737C1.7673 7.94118 0 6.16348 0 3.97059Z" fill="#FEF9FF"/>
<path d="M0 22.5C0 20.3071 1.7673 18.5294 3.94737 18.5294H46.0526C48.2327 18.5294 50 20.3071 50 22.5C50 24.6929 48.2327 26.4706 46.0526 26.4706H3.94737C1.7673 26.4706 0 24.6929 0 22.5Z" fill="#FEF9FF"/>
</svg>
