<svg width="50" height="46" viewBox="0 0 50 46" fill="none" xmlns="http://www.w3.org/2000/svg">
<path fill-rule="evenodd" clip-rule="evenodd" d="M47.978 25.6112V38.625L36.7568 45.1323L25.535 38.625V25.6112L36.7568 19.1046L47.978 25.6112ZM36.7568 27.7805C34.3714 27.7805 32.4377 29.7227 32.4377 32.1185C32.4377 34.5142 34.3714 36.4564 36.7568 36.4564C39.1421 36.4563 41.0759 34.5141 41.076 32.1185C41.076 29.7228 39.1421 27.7807 36.7568 27.7805Z" fill="#FEF9FF"/>
<path fill-rule="evenodd" clip-rule="evenodd" d="M38.7572 18.2371C40.0376 18.2371 41.0756 19.2795 41.0756 20.5655V43.6715C41.0755 44.9574 40.0375 46 38.7572 46H34.7557C33.4754 46 32.4375 44.9574 32.4373 43.6715V20.5655C32.4373 19.2795 33.4753 18.2371 34.7557 18.2371H38.7572ZM36.7568 27.7805C34.3714 27.7805 32.4377 29.7227 32.4377 32.1185C32.4377 34.5142 34.3714 36.4564 36.7568 36.4564C39.1421 36.4563 41.0759 34.5141 41.076 32.1185C41.076 29.7228 39.1421 27.7807 36.7568 27.7805Z" fill="#FEF9FF"/>
<path d="M44.5214 22.5248C45.6302 21.8819 47.0482 22.263 47.6885 23.3766L49.6892 26.8576C50.3292 27.9711 49.9491 29.3948 48.8405 30.0378L39.5515 35.4236C40.4833 34.628 41.0759 33.443 41.076 32.1185C41.076 29.7228 39.1421 27.7807 36.7568 27.7805C34.3714 27.7805 32.4377 29.7227 32.4377 32.1185C32.4377 34.5142 34.3714 36.4564 36.7568 36.4564C37.2643 36.4564 37.7505 36.3673 38.2028 36.2059L28.9164 41.5911C27.8075 42.2339 26.3895 41.8523 25.7493 40.7387L23.7485 37.2584C23.1084 36.1447 23.4885 34.7205 24.5972 34.0775L44.5214 22.5248Z" fill="#FEF9FF"/>
<path d="M25.7497 23.3767C26.3899 22.2631 27.8079 21.8813 28.9168 22.5243L48.8403 34.0776C49.9491 34.7206 50.3292 36.1448 49.689 37.2585L47.6882 40.7388C47.048 41.8524 45.63 42.2341 44.5211 41.5912L35.0846 36.1189C35.5989 36.336 36.164 36.4564 36.7568 36.4564C39.1421 36.4563 41.0759 34.5141 41.076 32.1185C41.076 29.7228 39.1421 27.7807 36.7568 27.7805C34.3714 27.7805 32.4377 29.7227 32.4377 32.1185C32.4377 33.5312 33.1102 34.7857 34.1512 35.5777L24.5976 30.0379C23.4888 29.3949 23.1087 27.9707 23.7489 26.857L25.7497 23.3767Z" fill="#FEF9FF"/>
<path d="M18.3212 24.8471C19.3691 24.8471 20.3929 24.9512 21.3829 25.1492L20.7121 26.2959C19.5992 28.1959 20.2451 30.6171 22.1546 31.7039L22.6805 32.0028L21.9178 32.4374C20.0083 33.5242 19.3624 35.9454 20.4753 37.8454L23.6023 43.1832H2.67156C1.19613 43.1831 3.56635e-05 41.9818 0 40.5C6.69036e-05 31.8553 6.97774 24.8472 15.585 24.8471H18.3212Z" fill="#FEF9FF"/>
<path d="M27.6647 10.549C27.6647 16.375 22.9622 21.098 17.1612 21.098C11.3603 21.098 6.6577 16.375 6.6577 10.549C6.6577 4.72294 11.3603 0 17.1612 0C22.9622 0 27.6647 4.72294 27.6647 10.549Z" fill="#FEF9FF"/>
</svg>
