<svg width="50" height="50" viewBox="0 0 50 50" fill="none" xmlns="http://www.w3.org/2000/svg">
<path d="M50 25C50 38.8071 38.8071 50 25 50C11.1929 50 0 38.8071 0 25C0 11.1929 11.1929 0 25 0C38.8071 0 50 11.1929 50 25ZM2.77593 25C2.77593 37.274 12.726 47.2241 25 47.2241C37.274 47.2241 47.2241 37.274 47.2241 25C47.2241 12.726 37.274 2.77593 25 2.77593C12.726 2.77593 2.77593 12.726 2.77593 25Z" fill="#E4D7EA"/>
<path d="M35.8024 15.6378C35.8024 21.3197 31.1963 25.9258 25.5144 25.9258C19.8324 25.9258 15.2263 21.3197 15.2263 15.6378C15.2263 9.95588 19.8324 5.34977 25.5144 5.34977C31.1963 5.34977 35.8024 9.95588 35.8024 15.6378Z" fill="#E4D7EA"/>
<path fill-rule="evenodd" clip-rule="evenodd" d="M24.9997 1.85185C37.784 1.85185 48.148 12.2155 48.1481 24.9997C48.1481 37.784 37.784 48.1481 24.9997 48.1481C12.2155 48.148 1.85185 37.7839 1.85185 24.9997C1.85197 12.2155 12.2155 1.85198 24.9997 1.85185ZM25.0214 3.70542C13.2489 3.70542 3.70542 13.2489 3.70542 25.0214C3.70542 36.7939 13.2489 46.3374 25.0214 46.3374C36.7939 46.3374 46.3374 36.7939 46.3374 25.0214C46.3374 13.2489 36.7939 3.70542 25.0214 3.70542Z" fill="#E4D7EA"/>
<path d="M26.6289 27.5719C34.3145 27.572 40.7015 33.1287 41.9933 40.4437L34.4499 45.9597L28.7794 47.6335H22.2496L14.2193 45.2641L8.90059 41.3741C9.79372 33.6052 16.3913 27.572 24.3995 27.5719H26.6289Z" fill="#E4D7EA"/>
</svg>
