<svg width="50" height="50" viewBox="0 0 50 50" fill="none" xmlns="http://www.w3.org/2000/svg">
<path d="M19.1008 5.29941C19.143 5.29774 19.1854 5.2967 19.228 5.2967C20.9862 5.2967 22.4115 6.72632 22.4115 8.48981C22.4115 10.2533 20.9862 11.6829 19.228 11.6829C19.1854 11.6829 19.143 11.6816 19.1008 11.68V11.6829H11.3841C8.61319 11.6829 6.36695 13.936 6.36695 16.7152V38.5815C6.36695 41.3607 8.61319 43.6138 11.3841 43.6138H33.1843C35.9552 43.6138 38.2015 41.3607 38.2015 38.5815V30.8413H38.2041C38.2025 30.799 38.2015 30.7565 38.2015 30.7138C38.2015 28.9503 39.6268 27.5207 41.3849 27.5207C43.1431 27.5207 44.5684 28.9503 44.5684 30.7138C44.5684 30.7565 44.5674 30.799 44.5657 30.8413H44.5684V41.1935C44.5684 46.0572 40.6375 50 35.7884 50H8.77997C3.93093 50 8.29163e-06 46.0572 0 41.1935V14.1032C0 9.23953 3.93093 5.2967 8.77997 5.2967H19.1008V5.29941Z" fill="#FEF9FF"/>
<path d="M45.8698 1.47393C43.9105 -0.49131 40.7338 -0.49131 38.7745 1.47393L37.0007 3.25312C36.021 4.23574 36.021 5.82888 37.0007 6.8115L43.2091 13.0387C44.1887 14.0213 45.777 14.0213 46.7567 13.0387L48.5305 11.2595C50.4898 9.29424 50.4898 6.10796 48.5305 4.14272L45.8698 1.47393Z" fill="#FEF9FF"/>
<path d="M34.9276 8.50121C33.948 7.51859 32.3596 7.51859 31.38 8.50121L15.8615 24.0667C15.5688 24.3603 15.353 24.722 15.2335 25.1195L12.5532 34.0352C11.9754 35.9568 13.7633 37.7501 15.6791 37.1706L24.5679 34.4821C24.9642 34.3622 25.3248 34.1458 25.6175 33.8523L41.136 18.2868C42.1157 17.3041 42.1157 15.711 41.136 14.7284L34.9276 8.50121Z" fill="#FEF9FF"/>
</svg>
