<svg width="50" height="44" viewBox="0 0 50 44" fill="none" xmlns="http://www.w3.org/2000/svg">
<path d="M0 17.182C0 15.7714 1.14799 14.6279 2.5641 14.6279H47.4359C48.852 14.6279 50 15.7714 50 17.182C50 18.5925 48.852 19.7361 47.4359 19.7361H2.5641C1.14799 19.7361 0 18.5925 0 17.182Z" fill="#FEF9FF"/>
<path fill-rule="evenodd" clip-rule="evenodd" d="M44.4587 14.6279C46.912 14.6279 48.7381 16.8849 48.2169 19.2729L43.4791 40.9827C43.0947 42.7439 41.5299 44 39.7206 44H10.0231C8.21374 44 6.64891 42.7438 6.26455 40.9827L1.52647 19.2729C1.00532 16.8849 2.83168 14.6279 5.28498 14.6279H44.4587ZM15.1282 21.5239C13.8537 21.5239 12.8205 22.5531 12.8205 23.8226V34.5498C12.8205 35.8194 13.8537 36.8485 15.1282 36.8485C16.4027 36.8485 17.4359 35.8194 17.4359 34.5498V23.8226C17.4359 22.5531 16.4027 21.5239 15.1282 21.5239ZM24.8718 21.5239C23.5973 21.5239 22.5641 22.5531 22.5641 23.8226V34.5498C22.5641 35.8194 23.5973 36.8485 24.8718 36.8485C26.1463 36.8485 27.1795 35.8194 27.1795 34.5498V23.8226C27.1795 22.5531 26.1463 21.5239 24.8718 21.5239ZM34.6154 21.5239C33.3409 21.5239 32.3077 22.5531 32.3077 23.8226V34.5498C32.3077 35.8194 33.3409 36.8485 34.6154 36.8485C35.8899 36.8485 36.9231 35.8194 36.9231 34.5498V23.8226C36.9231 22.5531 35.8899 21.5239 34.6154 21.5239Z" fill="#FEF9FF"/>
<path d="M41.5532 18.7335C40.652 19.6312 39.1908 19.6312 38.2896 18.7335L23.4222 3.92411C22.521 3.02641 22.521 1.57096 23.4222 0.67327C24.3234 -0.224423 25.7846 -0.224423 26.6858 0.67327L41.5532 15.4826C42.4544 16.3803 42.4544 17.8358 41.5532 18.7335Z" fill="#FEF9FF"/>
<path d="M8.55486 18.7335C9.45607 19.6312 10.9172 19.6312 11.8184 18.7335L26.6858 3.92411C27.587 3.02641 27.587 1.57096 26.6858 0.67327C25.7846 -0.224423 24.3234 -0.224423 23.4222 0.67327L8.55486 15.4826C7.65365 16.3803 7.65365 17.8358 8.55486 18.7335Z" fill="#FEF9FF"/>
</svg>
