<svg width="50" height="46" viewBox="0 0 50 46" fill="none" xmlns="http://www.w3.org/2000/svg">
<path d="M22.3689 28.0036C23.8343 29.4747 26.1657 29.4747 27.6311 28.0036L48.847 6.70428C51.2797 4.26201 49.6071 0 46.2159 0H3.78408C0.392903 0 -1.2797 4.26201 1.15302 6.70429L22.3689 28.0036Z" fill="#FEF9FF"/>
<path d="M18.7058 25.1796C18.7058 22.3049 20.9602 19.9745 23.7412 19.9745H26.2588C29.0398 19.9745 31.2942 22.3049 31.2942 25.1796V42.6981C31.2942 44.5217 29.8641 46 28.1 46C27.2442 46 26.4243 45.6451 25.8239 45.0147L20.1532 39.0612C19.2257 38.0875 18.7058 36.7758 18.7058 35.4093V25.1796Z" fill="#FEF9FF"/>
</svg>
