<svg width="18" height="18" viewBox="0 0 18 18" fill="none" xmlns="http://www.w3.org/2000/svg">
<path d="M6.45572 14.6611C5.78978 14.1683 5.6494 13.229 6.14216 12.563L12.7702 3.60579C13.263 2.93985 14.2023 2.79947 14.8682 3.29223C15.5341 3.785 15.6745 4.72432 15.1818 5.39025L8.55373 14.3475C8.06097 15.0135 7.12165 15.1538 6.45572 14.6611Z" fill="#FEF9FF"/>
<path d="M8.4012 14.5426C8.98698 13.9568 8.98698 13.0071 8.4012 12.4213L5.06769 9.08777C4.48191 8.50199 3.53216 8.50199 2.94637 9.08777C2.36059 9.67356 2.36059 10.6233 2.94637 11.2091L6.27988 14.5426C6.86566 15.1284 7.81541 15.1284 8.4012 14.5426Z" fill="#FEF9FF"/>
<path fill-rule="evenodd" clip-rule="evenodd" d="M15.8571 0C17.0406 2.20889e-07 18 0.95939 18 2.14286V15.8571C18 17.0406 17.0406 18 15.8571 18H2.14286C0.95939 18 3.45185e-09 17.0406 0 15.8571V2.14286C2.20918e-07 0.95939 0.95939 3.4514e-09 2.14286 0H15.8571ZM3.25714 1.97143C2.54706 1.97143 1.97143 2.54706 1.97143 3.25714V14.7429C1.97143 15.4529 2.54706 16.0286 3.25714 16.0286H14.7429C15.4529 16.0286 16.0286 15.4529 16.0286 14.7429V3.25714C16.0286 2.54706 15.4529 1.97143 14.7429 1.97143H3.25714Z" fill="#FEF9FF"/>
</svg>
