<svg width="19" height="45" viewBox="0 0 19 45" fill="none" xmlns="http://www.w3.org/2000/svg">
<path d="M16.7098 0.532643C18.6373 1.62914 19.2978 4.05762 18.1849 5.9568L7.5207 24.1564C6.40785 26.0555 3.94316 26.7063 2.01566 25.6098C0.0881519 24.5133 -0.57226 22.0848 0.540586 20.1856L11.2048 1.98604C12.3176 0.0868596 14.7823 -0.563851 16.7098 0.532643Z" fill="#FEF9FF"/>
<path d="M2.0158 18.922C3.9433 17.8255 6.40799 18.4762 7.52084 20.3754L18.4594 39.0432C19.5723 40.9424 18.9118 43.3709 16.9843 44.4674C15.0568 45.5639 12.5921 44.9131 11.4793 43.014L0.540728 24.3462C-0.572117 22.447 0.0882931 20.0185 2.0158 18.922Z" fill="#FEF9FF"/>
</svg>
