<svg width="18" height="18" viewBox="0 0 18 18" fill="none" xmlns="http://www.w3.org/2000/svg">
<path fill-rule="evenodd" clip-rule="evenodd" d="M15.8571 0C17.0406 2.20889e-07 18 0.95939 18 2.14286V15.8571C18 17.0406 17.0406 18 15.8571 18H2.14286C0.95939 18 3.45185e-09 17.0406 0 15.8571V2.14286C2.20918e-07 0.95939 0.95939 3.4514e-09 2.14286 0H15.8571ZM3.25714 1.97143C2.54706 1.97143 1.97143 2.54706 1.97143 3.25714V14.7429C1.97143 15.4529 2.54706 16.0286 3.25714 16.0286H14.7429C15.4529 16.0286 16.0286 15.4529 16.0286 14.7429V3.25714C16.0286 2.54706 15.4529 1.97143 14.7429 1.97143H3.25714Z" fill="#FEF9FF"/>
</svg>
