<svg width="45" height="50" viewBox="0 0 45 50" fill="none" xmlns="http://www.w3.org/2000/svg">
<path d="M41.85 43.2432C41.85 46.9749 38.8279 50 35.1 50H10.35C6.62208 50 3.6 46.9749 3.6 43.2432V13.964H41.85V43.2432ZM11.7 19.3694C10.4574 19.3694 9.45 20.3777 9.45 21.6216V42.3423C9.45 43.5862 10.4574 44.5946 11.7 44.5946C12.9426 44.5946 13.95 43.5862 13.95 42.3423V21.6216C13.95 20.3777 12.9426 19.3694 11.7 19.3694ZM22.5 19.3694C21.2574 19.3694 20.25 20.3777 20.25 21.6216V42.3423C20.25 43.5862 21.2574 44.5946 22.5 44.5946C23.7426 44.5946 24.75 43.5862 24.75 42.3423V21.6216C24.75 20.3777 23.7426 19.3694 22.5 19.3694ZM33.3 19.3694C32.0574 19.3694 31.05 20.3777 31.05 21.6216V42.3423C31.05 43.5862 32.0574 44.5946 33.3 44.5946C34.5426 44.5946 35.55 43.5862 35.55 42.3423V21.6216C35.55 20.3777 34.5426 19.3694 33.3 19.3694Z" fill="#FEF9FF"/>
<path d="M12.7765 3.6211L12.6 4.5045H3.375C1.51104 4.5045 0 6.01706 0 7.88288C0 9.74871 1.51104 11.2613 3.375 11.2613H11.25H33.75H41.625C43.489 11.2613 45 9.74871 45 7.88288C45 6.01706 43.489 4.5045 41.625 4.5045H32.4L32.2235 3.6211C31.8028 1.51558 29.9559 0 27.8109 0H17.1891C15.0441 0 13.1972 1.51558 12.7765 3.6211Z" fill="#FEF9FF"/>
</svg>
