<svg width="39" height="50" viewBox="0 0 39 50" fill="none" xmlns="http://www.w3.org/2000/svg">
<path fill-rule="evenodd" clip-rule="evenodd" d="M21.3779 18.1286H39V44.7368C39 47.6436 36.6719 50 33.8 50H5.2C2.32812 50 2.09397e-08 47.6436 0 44.7368V5.26316C4.18795e-07 2.3564 2.32812 1.48349e-07 5.2 0H21.3779V18.1286ZM12.48 34.2105C11.0441 34.2105 9.88 35.3887 9.88 36.8421C9.88 38.2955 11.0441 39.4737 12.48 39.4737H26.78C28.2159 39.4737 29.38 38.2955 29.38 36.8421C29.38 35.3887 28.2159 34.2105 26.78 34.2105H12.48ZM12.48 23.6842C11.0441 23.6842 9.88 24.8624 9.88 26.3158C9.88 27.7692 11.0441 28.9474 12.48 28.9474H26.78C28.2159 28.9474 29.38 27.7692 29.38 26.3158C29.38 24.8624 28.2159 23.6842 26.78 23.6842H12.48Z" fill="#FEF9FF"/>
<path fill-rule="evenodd" clip-rule="evenodd" d="M21.469 0C23.5377 -4.58888e-07 25.5218 0.831846 26.9846 2.3124L36.7153 12.1613C38.1781 13.6418 39 15.6501 39 17.7439V19.7047C39 25.2946 33.7526 28.5919 29.168 27.3569C29.304 27.0375 29.38 26.6857 29.38 26.3158C29.38 24.8624 28.2159 23.6842 26.78 23.6842H24.2805L15.1554 13.0798C10.7596 7.97138 14.3444 1.48468e-06 21.0374 0H21.469ZM22.36 14.2105C22.36 15.6639 23.524 16.8421 24.96 16.8421H33.8L22.36 5.26316V14.2105Z" fill="#FEF9FF"/>
</svg>
