<svg width="140" height="128" viewBox="0 0 140 128" fill="none" xmlns="http://www.w3.org/2000/svg">
<path d="M36.6849 105.2C35.7366 101.648 38.4168 98.1642 42.0969 98.1642H104.634C107.728 98.1642 110.235 100.669 110.235 103.758C110.235 106.848 107.728 109.353 104.634 109.353H42.0969C39.5593 109.353 37.3387 107.649 36.6849 105.2Z" fill="#FEF9FF"/>
<path d="M111.955 71.5383C114.143 69.3536 117.689 69.3536 119.877 71.5383L138.359 89.9982C140.547 92.1829 140.547 95.7249 138.359 97.9096C136.172 100.094 132.626 100.094 130.438 97.9096L111.955 79.4497C109.768 77.265 109.768 73.7229 111.955 71.5383Z" fill="#FEF9FF"/>
<path d="M41.1544 75.7874C48.4705 75.7874 54.6933 80.4577 57.0002 86.9758H40.7809C37.6875 86.9758 35.1798 89.4804 35.1798 92.57C35.1798 95.6596 37.6875 98.1642 40.7809 98.1642H57.0002C54.6933 104.682 48.4705 109.353 41.1544 109.353C31.8741 109.353 24.3509 101.839 24.3509 92.57C24.3509 83.3012 31.8741 75.7874 41.1544 75.7874Z" fill="#FEF9FF"/>
<path fill-rule="evenodd" clip-rule="evenodd" d="M96.0457 12.3864C116.669 12.3864 133.387 29.0838 133.387 49.6811C133.387 70.2784 116.669 86.9758 96.0457 86.9758C75.4228 86.9758 58.7046 70.2784 58.7046 49.6811C58.7046 29.0838 75.4228 12.3864 96.0457 12.3864ZM96.0457 23.5748C81.6096 23.5748 69.9069 35.263 69.9069 49.6811C69.9069 64.0992 81.6096 75.7874 96.0457 75.7874C110.482 75.7874 122.184 64.0992 122.184 49.6811C122.184 35.263 110.482 23.5748 96.0457 23.5748Z" fill="#FEF9FF"/>
<path d="M57.9578 118.676C57.9578 123.826 53.7783 128 48.6226 128C43.4668 128 39.2873 123.826 39.2873 118.676C39.2873 113.527 43.4668 109.353 48.6226 109.353C53.7783 109.353 57.9578 113.527 57.9578 118.676Z" fill="#FEF9FF"/>
<path d="M95.2988 118.676C95.2988 123.826 91.1193 128 85.9636 128C80.8079 128 76.6283 123.826 76.6283 118.676C76.6283 113.527 80.8079 109.353 85.9636 109.353C91.1193 109.353 95.2988 113.527 95.2988 118.676Z" fill="#FEF9FF"/>
<path d="M59.6469 75.7874C62.8108 80.1799 66.7519 83.9762 71.2693 86.9758H40.7809V75.7874H59.6469Z" fill="#FEF9FF"/>
<path d="M59.6469 23.5748C57.1958 26.9778 55.2113 30.7383 53.7869 34.7632H28.8318V23.5748H59.6469Z" fill="#FEF9FF"/>
<path d="M0.123548 4.43225C-0.519612 7.45433 1.41193 10.425 4.43776 11.0673L25.6223 15.5646C28.6481 16.207 31.6224 14.2779 32.2656 11.2558C32.9087 8.2337 30.9772 5.26308 27.9514 4.62072L6.76685 0.123395C3.74102 -0.518968 0.766709 1.41017 0.123548 4.43225Z" fill="#FEF9FF"/>
<path d="M25.7202 4.60458C22.6829 5.19424 20.6993 8.13143 21.2897 11.165L34.7727 80.4431C35.3631 83.4767 38.304 85.4578 41.3413 84.8682C44.3786 84.2785 46.3622 81.3413 45.7718 78.3077L32.2888 9.02963C31.6984 5.99608 28.7576 4.01491 25.7202 4.60458Z" fill="#FEF9FF"/>
</svg>
