<svg width="39" height="50" viewBox="0 0 39 50" fill="none" xmlns="http://www.w3.org/2000/svg">
<path d="M5.72205e-06 24.6316C5.72205e-06 22.1124 2.01472 20.0702 4.50001 20.0702H34.5C36.9853 20.0702 39 22.1124 39 24.6316V45.4386C39 47.9578 36.9853 50 34.5 50H4.5C2.01472 50 -9.53674e-07 47.9578 -9.53674e-07 45.4386L5.72205e-06 24.6316Z" fill="#FEF9FF"/>
<path fill-rule="evenodd" clip-rule="evenodd" d="M19.35 0C27.2201 0 33.6 6.467 33.6 14.4444V23.8713C33.6 31.8488 27.2201 38.3158 19.35 38.3158C11.4799 38.3158 5.10001 31.8488 5.10001 23.8713V14.4444C5.10001 6.467 11.4799 0 19.35 0ZM19.35 6.08187C14.7937 6.08187 11.1 9.82592 11.1 14.4444V23.8713C11.1 28.4899 14.7937 32.2339 19.35 32.2339C23.9064 32.2339 27.6 28.4899 27.6 23.8713V14.4444C27.6 9.82592 23.9064 6.08187 19.35 6.08187Z" fill="#FEF9FF"/>
</svg>
