<svg width="50" height="50" viewBox="0 0 50 50" fill="none" xmlns="http://www.w3.org/2000/svg">
<path d="M25.0273 50C22.2659 49.999 20.0265 47.7597 20.0256 44.9983L20.0118 4.99828C20.0108 2.23685 22.2486 -0.000951686 25.01 3.03628e-07C27.7715 0.000952293 30.0108 2.2403 30.0118 5.00172L30.0256 45.0017C30.0265 47.7631 27.7887 50.001 25.0273 50Z" fill="#FEF9FF"/>
<path d="M50 25.0273C49.999 22.2659 47.7597 20.0265 44.9983 20.0256L4.99828 20.0118C2.23685 20.0108 -0.000951686 22.2486 3.03628e-07 25.01C0.000952293 27.7715 2.2403 30.0108 5.00172 30.0118L45.0017 30.0256C47.7631 30.0265 50.001 27.7887 50 25.0273Z" fill="#FEF9FF"/>
</svg>
