<svg width="45" height="50" viewBox="0 0 45 50" fill="none" xmlns="http://www.w3.org/2000/svg">
<path d="M19.6364 2.7027C19.6364 1.21004 20.8574 0 22.3636 0C23.8699 0 25.0909 1.21004 25.0909 2.7027V30.8108C25.0909 32.3035 23.8699 33.5135 22.3636 33.5135C20.8574 33.5135 19.6364 32.3035 19.6364 30.8108V2.7027Z" fill="#FEF9FF"/>
<path d="M0 37.1622C0 35.2963 1.48141 33.7838 3.30882 33.7838H41.6912C43.5186 33.7838 45 35.2963 45 37.1622C45 39.028 43.5186 40.5405 41.6912 40.5405H3.30882C1.48141 40.5405 0 39.028 0 37.1622Z" fill="#FEF9FF"/>
<path d="M6.75 24.3243H22.5V33.7838H3.17647C6.78232 29.2576 7.14337 26.493 6.75 24.3243Z" fill="#FEF9FF"/>
<path d="M6.75 24.3243H22.5V33.7838H3.17647C6.78232 29.2576 7.14337 26.493 6.75 24.3243Z" fill="#FEF9FF"/>
<path d="M38.25 24.3243H22.5V33.7838H41.8235C38.2177 29.2576 37.8566 26.493 38.25 24.3243Z" fill="#FEF9FF"/>
<path d="M38.25 24.3243H22.5V33.7838H41.8235C38.2177 29.2576 37.8566 26.493 38.25 24.3243Z" fill="#FEF9FF"/>
<path d="M39.1765 19.5946C39.1765 28.9237 31.7694 36.4865 22.6324 36.4865C13.4953 36.4865 6.08824 28.9237 6.08824 19.5946C6.08824 10.2655 13.4953 2.7027 22.6324 2.7027C31.7694 2.7027 39.1765 10.2655 39.1765 19.5946Z" fill="#FEF9FF"/>
<path d="M29.1818 43.2432C29.1818 46.9749 26.1292 50 22.3636 50C18.5981 50 15.5455 46.9749 15.5455 43.2432H29.1818Z" fill="#FEF9FF"/>
<path d="M22.3636 36.4865C25.1595 36.4865 27.5618 38.1543 28.614 40.5405H16.1133C17.1654 38.1543 19.5678 36.4865 22.3636 36.4865Z" fill="#FEF9FF"/>
</svg>
